<svg width="35" height="35" viewBox="0 0 35 35" fill="none" xmlns="http://www.w3.org/2000/svg">
<path d="M5.91143 11.8804C4.77762 12.7513 3.56575 13.5278 2.29226 14.2015C2.25939 13.7783 2.24707 13.347 2.24707 12.9115C2.24707 11.1739 2.47712 9.44437 2.92079 7.76829C3.06457 7.55057 3.21657 7.33695 3.36856 7.12744C4.07925 8.77887 4.92961 10.3687 5.91143 11.8804Z" fill="#C8D5DE"/>
<path d="M25.8396 25.5643C23.1981 28.3988 19.9446 30.6213 16.3624 32.0344C8.857 29.7175 3.4344 23.2884 2.42383 15.5201C3.89861 14.7725 5.29945 13.8934 6.6058 12.9033C11.1986 19.3899 18.1329 23.9416 25.8396 25.5643Z" fill="#C8D5DE"/>
<path d="M6.87698 11.108C5.84176 9.49767 4.96264 7.78873 4.25195 6.02228C4.60114 5.61969 4.96675 5.23353 5.3529 4.86792C6.72909 6.12087 8.20799 7.26701 9.77725 8.26115C8.88581 9.28405 7.91632 10.2371 6.87698 11.108Z" fill="#B2C3CE"/>
<path d="M32.3917 12.5706C31.5907 16.9498 29.664 21.0496 26.7843 24.4962C19.0735 23.0666 12.1145 18.5889 7.56689 12.1311C8.75001 11.1533 9.84685 10.0729 10.8451 8.90625C15.6104 11.6668 21.0371 13.1211 26.5748 13.1211C28.5343 13.1211 30.4856 12.928 32.3917 12.5706Z" fill="#B2C3CE"/>
<path d="M14.563 0.234131C13.6058 2.80576 12.2501 5.18431 10.5741 7.30405C9.04998 6.3551 7.61217 5.25004 6.27295 4.03817C8.6022 2.09507 11.445 0.747635 14.563 0.234131Z" fill="#9DB2BF"/>
<path d="M32.7781 9.25539C32.7453 9.94143 32.6754 10.6193 32.5891 11.2765C30.6214 11.6791 28.6044 11.8886 26.575 11.8886C21.3249 11.8886 16.1776 10.5248 11.6382 7.93672C13.4786 5.58692 14.941 2.92903 15.9311 0.0616211C16.4158 0.0205408 16.9088 0 17.4059 0C24.0609 0 29.8532 3.75474 32.7781 9.25539Z" fill="#9DB2BF"/>
<path d="M1.10088 14.793C0.784566 14.945 0.464141 15.0847 0.135498 15.2202C0.303927 13.8934 0.620245 12.6075 1.07213 11.3875C1.03516 11.8927 1.01462 12.4021 1.01462 12.9115C1.01462 13.5483 1.04337 14.1809 1.10088 14.793Z" fill="#DDE2E6"/>
<path d="M14.4972 32.6876C13.3018 33.0532 12.0858 33.3367 10.8534 33.5298C4.49419 30.9335 0 24.6852 0 17.4058C0 17.1346 0.00821644 16.8635 0.0164325 16.5965C0.435452 16.4363 0.850365 16.2596 1.25706 16.0789C2.38266 23.6212 7.43554 29.9229 14.4972 32.6876Z" fill="#DDE2E6"/>
<path d="M17.4058 34.8114C15.9721 34.8114 14.5753 34.6347 13.2402 34.3061C14.3823 34.0309 15.512 33.6858 16.6047 33.2627C20.7826 31.6564 24.5455 28.9985 27.4869 25.5765C30.839 21.6739 33.004 16.9373 33.7475 11.8927C33.764 11.7818 33.7763 11.6626 33.7927 11.5476C34.45 13.3798 34.8115 15.3516 34.8115 17.4057C34.8115 27.002 27.0021 34.8114 17.4058 34.8114Z" fill="#DDE2E6"/>
</svg>
